<svg xmlns="http://www.w3.org/2000/svg" viewBox="0 0 48 48">
<g id="Icon">
  <path fill="#0050d1" d="M45.2,20.9L26.1,2.8c-.6-.6-1.4-.8-2.1-.8s-1.6.3-2.1.8L2.8,20.9c-.9.9-.8,1.7-.7,2.1.2.4.6,1,1.9,1h2c.5,0,1,.4,1,1v18c0,1.7,1.3,3,3,3h6c1.7,0,3-1.3,3-3v-12c0-.6.4-1,1-1h8c.6,0,1,.4,1,1v12c0,1.7,1.3,3,3,3h6c1.7,0,3-1.3,3-3v-18c0-.5.4-1,1-1h2c1.3,0,1.8-.6,1.9-1,.2-.4.3-1.2-.7-2.1h0ZM41,22c-1.1,0-2,.9-2,2v19c0,.6-.5,1-1,1h-6c-.6,0-1-.4-1-1v-12c0-1.7-1.3-3-3-3h-8c-1.7,0-3,1.3-3,3v12c0,.6-.5,1-1,1h-6c-.6,0-1-.4-1-1v-19c0-1.1-.9-2-2-2h-2.5S23.2,4.3,23.2,4.3c.2-.2.5-.3.8-.3.3,0,.6,0,.8.3l18.7,17.7h-2.5Z"/>
</g>
</svg>
