<svg xmlns="http://www.w3.org/2000/svg" viewBox="0 0 48 48">
<g id="Icon">
  <g>
    <path fill="#0050d1" d="M33.6,19.9c4.9.9,9.2-3.3,8.2-8.2-.5-2.8-2.7-5-5.5-5.5-4.9-.9-9.2,3.3-8.2,8.2.5,2.8,2.7,5,5.5,5.5h0ZM30.2,11.6c.4-1.7,1.8-3,3.5-3.5,3.8-1,7.2,2.4,6.2,6.2-.4,1.7-1.8,3-3.5,3.5-3.8,1-7.2-2.4-6.2-6.2h0Z"/>
    <path fill="#0050d1" d="M41.3,22h-12.6c-2.6,0-4.7,2.1-4.7,4.8v1.2h-3v-7c0-1.7-1.5-3-3.4-3h-9.1c-1.9,0-3.4,1.4-3.4,3v7h-2c-.6,0-1,.4-1,1s.4,1,1,1h21v9.4c0,.9.7,1.6,1.6,1.6h18.8c.9,0,1.6-.7,1.6-1.6v-12.6c0-2.7-2.1-4.8-4.7-4.8h0ZM19,28H7v-7c0-.5.7-1,1.4-1h9.1c.8,0,1.4.5,1.4,1v7h0ZM44,39h-18v-12.2c0-1.5,1.2-2.8,2.7-2.8h12.6c1.5,0,2.7,1.3,2.7,2.8v12.2h0Z"/>
    <path fill="#0050d1" d="M13,16c2.8,0,5-2.2,5-5s-2.2-5-5-5-5,2.2-5,5,2.2,5,5,5h0ZM10.1,10.4c.2-1.2,1.2-2.1,2.4-2.4,2.1-.4,3.9,1.4,3.5,3.5-.2,1.2-1.2,2.1-2.4,2.4-2.1.4-3.9-1.4-3.5-3.5h0Z"/>
  </g>
</g>
</svg>
