<svg xmlns="http://www.w3.org/2000/svg" viewBox="0 0 48 48">
<g id="Icon">
  <g>
    <path fill="#0050d1" d="M45,44H3c-0.552,0-1,0.447-1,1s0.448,1,1,1h42c0.553,0,1-0.447,1-1S45.553,44,45,44z"/>
    <path fill="#0050d1" d="M8,37v3c0,0.553,0.448,1,1,1s1-0.447,1-1v-3c0-0.553-0.448-1-1-1S8,36.447,8,37z"/>
    <path fill="#0050d1" d="M23,28v12c0,0.553,0.448,1,1,1s1-0.447,1-1V28c0-0.553-0.448-1-1-1S23,27.447,23,28z"/>
    <path fill="#0050d1" d="M38,18v22c0,0.553,0.447,1,1,1s1-0.447,1-1V18c0-0.552-0.447-1-1-1S38,17.448,38,18z"/>
    <path fill="#0050d1" d="M5.001,33c0.211,0,0.424-0.066,0.605-0.205L42,5.021v7.432c0,0.552,0.447,1,1,1s1-0.448,1-1V3 c0-0.042-0.019-0.077-0.023-0.117c-0.008-0.068-0.018-0.133-0.04-0.198c-0.022-0.067-0.055-0.125-0.09-0.186 c-0.021-0.034-0.027-0.073-0.052-0.105c-0.014-0.018-0.034-0.026-0.049-0.042c-0.046-0.053-0.1-0.095-0.156-0.138 c-0.05-0.037-0.096-0.074-0.149-0.101c-0.056-0.027-0.114-0.042-0.176-0.059c-0.066-0.019-0.131-0.036-0.2-0.041 C43.042,2.011,43.022,2,43,2h-9.453c-0.553,0-1,0.448-1,1s0.447,1,1,1h6.495L4.394,31.205c-0.439,0.335-0.523,0.963-0.188,1.401 C4.402,32.864,4.7,33,5.001,33z"/>
  </g>
</g>
</svg>
