<svg xmlns="http://www.w3.org/2000/svg" viewBox="0 0 48 48">
<g id="Icon">
  <g>
    <path fill="#0050d1" d="M43,8H5c-1.654,0-3,1.346-3,3v26c0,1.654,1.346,3,3,3h38c1.654,0,3-1.346,3-3V11C46,9.346,44.654,8,43,8z M44,37c0,0.552-0.448,1-1,1H5c-0.551,0-1-0.448-1-1V11c0-0.551,0.449-1,1-1h38c0.552,0,1,0.449,1,1V37z"/>
    <path fill="#0050d1" d="M40,16H27c-0.55,0-1,0.45-1,1s0.45,1,1,1h13c0.55,0,1-0.45,1-1S40.55,16,40,16z"/>
    <path fill="#0050d1" d="M40,23H27c-0.55,0-1,0.45-1,1s0.45,1,1,1h13c0.55,0,1-0.45,1-1S40.55,23,40,23z"/>
    <path fill="#0050d1" d="M40,30H27c-0.55,0-1,0.45-1,1s0.45,1,1,1h13c0.55,0,1-0.45,1-1S40.55,30,40,30z"/>
    <path fill="#0050d1" d="M16.931,16.868c1.578,0,3.07,0.695,4.314,2.008c0.173,0.183,0.409,0.289,0.664,0.297 c0.247,0.018,0.496-0.079,0.675-0.242c0.188-0.167,0.297-0.395,0.308-0.642c0.011-0.248-0.079-0.486-0.251-0.667 c-1.613-1.705-3.587-2.605-5.71-2.605c-3.187,0-6.835,2.097-7.864,6.11H7.959c-0.524,0-0.95,0.415-0.95,0.925 c0,0.51,0.426,0.925,0.95,0.925h0.837c-0.019,0.396-0.056,0.905-0.022,1.678H7.959c-0.524,0-0.95,0.415-0.95,0.925 c0,0.511,0.426,0.925,0.95,0.925h0.898c0.71,3.592,3.879,6.511,8.073,6.511c2.179,0,4.102-0.879,5.717-2.615 c0.35-0.378,0.32-0.964-0.067-1.305c-0.386-0.343-0.99-0.316-1.341,0.062v0.001c-1.239,1.331-2.688,2.01-4.309,2.006 c-2.857-0.007-4.888-1.732-5.966-4.66h7.821c0.524,0,0.949-0.414,0.949-0.925s-0.426-0.925-0.949-0.925H10.66 c0.01-0.629-0.013-1.326,0.039-1.678h9.271c0.524,0,0.949-0.415,0.949-0.925c0-0.51-0.426-0.925-0.949-0.925h-8.933 C11.88,18.483,14.085,16.868,16.931,16.868z"/>
  </g>
</g>
</svg>
