<svg xmlns="http://www.w3.org/2000/svg" viewBox="0 0 48 48">
<g id="Icon">
  <path fill="#0050d1" d="M41.3,38.3c-3.4,3.8-7.4,5.7-12,5.7-8.8,0-15.9-7.3-17.1-17h21.8c.6,0,1-.4,1-1s-.4-1-1-1H12c0-.3,0-.7,0-1,0-1,0-2,.2-3h24.8c.6,0,1-.4,1-1s-.4-1-1-1H12.5c1.9-8.7,8.6-15,16.8-15s8.5,2,12,5.7c.4.4,1,.4,1.4,0,.4-.4.4-1,0-1.4-3.8-4.1-8.5-6.3-13.4-6.3-9.3,0-16.9,7.2-18.8,17h-4.5c-.6,0-1,.4-1,1s.4,1,1,1h4.2c-.1,1-.2,2-.2,3s0,.7,0,1h-4c-.6,0-1,.4-1,1s.4,1,1,1h4.2c1.2,10.9,9.2,19,19.1,19s9.6-2.1,13.4-6.3c.4-.4.3-1,0-1.4-.4-.4-1-.3-1.4,0h0Z"/>
</g>
</svg>
