<?xml version="1.0" encoding="utf-8"?>
<!-- Generator: Adobe Illustrator 23.0.4, SVG Export Plug-In . SVG Version: 6.00 Build 0)  -->
<svg version="1.1" id="Ebene_1" xmlns="http://www.w3.org/2000/svg" xmlns:xlink="http://www.w3.org/1999/xlink" x="0px" y="0px"
	 viewBox="0 0 48 48" style="enable-background:new 0 0 48 48;" xml:space="preserve">
<style type="text/css">
	.st0{fill:#133C7F;}
</style>
<g id="Grid">
</g>
<g id="Icon">
	<path class="st0" d="M24,2C11.869,2,2,11.869,2,24s9.869,22,22,22s22-9.869,22-22S36.131,2,24,2z M23.007,13.007
		c-2.892-0.076-5.122-0.48-7.002-1.075c1.622-4.348,4.109-7.286,7.002-7.834V13.007z M23.007,15.006V23h-8.961
		c0.08-3.36,0.55-6.473,1.332-9.171C17.422,14.477,19.865,14.927,23.007,15.006z M23.007,25v8.017
		c-3.146,0.078-5.586,0.522-7.625,1.164c-0.784-2.7-1.257-5.816-1.336-9.181H23.007z M23.007,35.017v8.874
		c-2.89-0.547-5.375-3.476-6.997-7.813C17.884,35.49,20.112,35.091,23.007,35.017z M25.007,35.017
		c2.904,0.076,5.136,0.478,7.013,1.07c-1.627,4.326-4.117,7.251-7.013,7.803V35.017z M25.007,33.018V25h8.989
		c-0.08,3.368-0.556,6.488-1.345,9.19C30.608,33.545,28.163,33.097,25.007,33.018z M25.007,23v-7.994
		c3.176-0.08,5.619-0.531,7.651-1.18c0.785,2.699,1.258,5.813,1.338,9.173L25.007,23L25.007,23z M25.007,13.007V4.098
		c2.9,0.553,5.395,3.49,7.022,7.832C30.161,12.525,27.931,12.931,25.007,13.007z M30.215,5.001c2.771,0.909,5.266,2.412,7.357,4.351
		c-1.185,0.665-2.353,1.313-3.668,1.877C32.943,8.68,31.688,6.566,30.215,5.001z M14.127,11.239
		c-1.328-0.564-2.51-1.214-3.701-1.884c2.1-1.948,4.608-3.458,7.392-4.366C16.343,6.557,15.087,8.679,14.127,11.239z M9.183,10.951
		c1.349,0.759,2.716,1.527,4.306,2.189c-0.858,2.901-1.361,6.243-1.441,9.86H4.051c0.231-4.648,2.046-8.877,4.929-12.163
		L9.183,10.951z M12.047,25c0.081,3.619,0.585,6.963,1.445,9.865c-1.591,0.659-2.956,1.424-4.301,2.181l-0.21,0.117
		C6.097,33.878,4.282,29.648,4.051,25H12.047z M14.131,36.765c0.963,2.562,2.222,4.685,3.701,6.251
		c-2.79-0.907-5.302-2.419-7.405-4.369C11.617,37.978,12.799,37.327,14.131,36.765z M33.898,36.777
		c1.319,0.56,2.493,1.205,3.675,1.869c-2.095,1.943-4.596,3.449-7.373,4.357C31.677,41.441,32.935,39.328,33.898,36.777z
		 M38.81,37.046c-1.337-0.752-2.691-1.512-4.27-2.168c0.866-2.905,1.374-6.253,1.455-9.878h7.954
		c-0.231,4.648-2.046,8.878-4.93,12.163L38.81,37.046z M35.995,23c-0.081-3.621-0.587-6.966-1.45-9.869
		c1.497-0.63,2.789-1.353,4.065-2.067c0.136-0.076,0.272-0.152,0.409-0.228c2.884,3.286,4.699,7.515,4.931,12.164H35.995z"/>
</g>
</svg>
